<?xml version="1.0" encoding="utf-8"?>
<svg xmlns="http://www.w3.org/2000/svg" xmlns:xlink="http://www.w3.org/1999/xlink" version= "1.1" width="409px" height="292px" viewBox="245 993 409 292">
<g id="layer1">
<g style="fill:rgb(0,174,199); fill-opacity:1.0; stroke-linejoin: miter">
<path d="M244.99901,992.73096L244.94646,992.73615L244.73192,1283.4537L654.26904,1283.4541L654.1639,992.7878L244.99901,992.73096 Z"/>
</g>
<g style="fill:rgb(0,0,0); fill-opacity:0.36862746; stroke-linejoin: miter">
<path d="M364.13553,1185.125L363.6702,1185.2073Q360.36188,1185.4558,344.31006,1185.6047Q328.14716,1185.7534,306.2442,1185.7253Q285.3407,1185.686,272.8079,1185.4954Q268.79224,1185.4336,266.19257,1185.3608L264.00757,1185.2861Q262.20697,1185.209,262.18674,1185.125Q262.73334,1184.8674,277.1168,1184.6965Q291.50024,1184.5254,313.16113,1184.519Q334.82202,1184.5254,349.20547,1184.6965Q363.5889,1184.8674,364.13553,1185.125"/>
</g>
<g style="fill:rgb(255,255,255); fill-opacity:1.0; stroke-linejoin: miter">
<path d="M329.0074,1139.9075L329.00348,1140.2749Q329.01086,1140.4155,328.84167,1140.9849Q328.76196,1141.2051,328.64786,1141.4033Q328.41986,1141.7991,328.0542,1142.1069Q327.68805,1142.4124,327.26764,1142.5776Q327.171,1142.6409,326.6067,1142.7456Q326.37604,1142.7754,326.132,1142.7698Q324.9614,1142.6926,324.25073,1141.9714Q323.47363,1141.1438,323.4581,1140.2019Q323.47552,1139.5901,323.52405,1139.4878Q323.57416,1139.262,323.6618,1139.0535Q323.83698,1138.636,324.16208,1138.2852Q324.49902,1137.9165,324.9144,1137.6958Q325.12198,1137.585,325.34912,1137.5112Q325.45047,1137.4512,326.07474,1137.3723Q326.66776,1137.3745,326.7734,1137.4177Q326.99826,1137.4597,327.21228,1137.5376Q327.5998,1137.6594,328.10632,1138.0598Q328.4282,1138.343,328.7135,1138.8306Q329.02655,1139.5889,329.0074,1139.9075"/>
</g>
<g style="fill:rgb(255,203,40); fill-opacity:1.0; stroke-linejoin: miter">
<path d="M311.45526,1115.1572L281.5958,1147.0186L341.32608,1147.0083L311.45526,1115.1572 Z M311.4599,1140.9675C308.1208,1140.9683,305.41336,1138.2617,305.41272,1134.9226C305.4121,1131.5835,308.1186,1128.876,311.45776,1128.8755C314.79703,1128.8752,317.5043,1131.5815,317.50482,1134.9202C317.50537,1138.2593,314.7992,1140.967,311.4599,1140.9675 Z"/>
</g>
<g style="fill:rgb(255,203,40); fill-opacity:1.0; stroke-linejoin: miter">
<path d="M281.2402,1147.3982L281.231,1147.4082L281.23676,1179.2642L313.48224,1179.2588L313.47754,1153.0591L332.62347,1153.0559L332.62808,1179.2551L341.69708,1179.2534L341.6918,1149.0234L281.24048,1149.0344L281.2402,1147.3982 Z M288.79315,1173.217L288.7909,1161.1248L288.7906,1159.1096L288.78983,1155.0791L288.78946,1153.0635L290.80487,1153.0635L304.91223,1153.0608L306.92752,1153.0603L306.9278,1155.0757L306.92856,1159.1062L306.92896,1161.1216L306.9311,1173.2136L306.93143,1175.2288L304.91605,1175.2295L290.8088,1175.2319L288.7935,1175.2324L288.79315,1173.217 Z"/>
</g>
<g style="fill:rgb(88,95,113); fill-opacity:1.0; stroke-linejoin: miter">
<path d="M341.32626,1147.008L281.5958,1147.0188L281.2402,1147.3982L281.24048,1149.0339L341.6917,1149.0237L341.7008,1149.0234L341.7006,1147.4072 Z"/>
</g>
<g style="fill:rgb(112,97,78); fill-opacity:1.0; stroke-linejoin: miter">
<path d="M349.0926,1146.4509L339.68326,1136.418L339.68127,1124.8401L333.63528,1124.8411L333.63623,1129.9702L311.45367,1106.3176L273.82938,1146.4641L278.24124,1150.5981L281.23087,1147.4082L281.2402,1147.3982L281.5958,1147.0186L311.45526,1115.1572L341.32626,1147.008L341.7006,1147.4072L344.6822,1150.5867 Z"/>
</g>
<g style="fill:rgb(105,90,105); fill-opacity:1.0; stroke-linejoin: miter">
<path d="M311.45776,1128.8755C308.1186,1128.876,305.4121,1131.5837,305.41272,1134.9226C305.41336,1138.2617,308.1208,1140.9683,311.4599,1140.9675C314.7992,1140.967,317.50537,1138.2593,317.50482,1134.9202C317.5043,1131.5813,314.79703,1128.8752,311.45776,1128.8755 Z M311.4595,1138.9521C309.23337,1138.9526,307.4285,1137.1482,307.42798,1134.9221C307.42792,1133.4666,308.1993,1132.1917,309.35577,1131.4829C309.91022,1131.1428,310.55328,1130.9333,311.24243,1130.897C311.31387,1130.8933,311.3858,1130.8909,311.4583,1130.8909C313.68445,1130.8906,315.48932,1132.6948,315.48975,1134.9207C315.49008,1137.147,313.68567,1138.9519,311.4595,1138.9521 Z"/>
</g>
<g style="fill:rgb(149,255,255); fill-opacity:1.0; stroke-linejoin: miter">
<path d="M311.45816,1130.8909C313.68402,1130.8906,315.4891,1132.6948,315.48956,1134.9207C315.4891,1132.6948,313.68427,1130.8906,311.45816,1130.8909 Z"/>
</g>
<g style="fill:rgb(149,255,255); fill-opacity:1.0; stroke-linejoin: miter">
<path d="M311.2422,1130.8967C311.3137,1130.8931,311.3858,1130.8909,311.45816,1130.8909C311.3858,1130.8909,311.31387,1130.8933,311.2422,1130.8967 Z"/>
</g>
<g style="fill:rgb(178,215,242); fill-opacity:1.0; stroke-linejoin: miter">
<path d="M308.6085,1132.0723C308.8328,1131.8474,309.08374,1131.6499,309.35577,1131.4829C308.19946,1132.1917,307.42792,1133.4666,307.42798,1134.9221C307.42853,1137.1482,309.23343,1138.9526,311.4595,1138.9521C313.68567,1138.9519,315.48993,1137.147,315.48956,1134.9207C315.4898,1136.0337,315.03873,1137.0417,314.3092,1137.7708L308.6085,1132.0723 Z"/>
</g>
<g style="fill:rgb(139,181,211); fill-opacity:1.0; stroke-linejoin: miter">
<path d="M311.45816,1130.8909C311.3858,1130.8909,311.31387,1130.8933,311.2422,1130.897C310.55307,1130.9333,309.91022,1131.1428,309.35553,1131.4829C309.08353,1131.6499,308.8328,1131.8474,308.6083,1132.0723L314.30893,1137.7708C315.0385,1137.0417,315.4896,1136.0337,315.48932,1134.9207C315.4891,1132.6948,313.68402,1130.8906,311.45816,1130.8909 Z"/>
</g>
<g style="fill:rgb(178,215,242); fill-opacity:1.0; stroke-linejoin: miter">
<path d="M302.90045,1173.2144L290.80624,1161.1245L290.8085,1173.2166L304.9158,1173.2144 Z"/>
</g>
<g style="fill:rgb(139,181,211); fill-opacity:1.0; stroke-linejoin: miter">
<path d="M290.80515,1155.0784L304.91257,1155.0759L304.91324,1159.1067L290.80594,1159.1091L290.80515,1155.0784 Z M290.80515,1155.0784L304.91257,1155.0759L304.91324,1159.1067L290.80594,1159.1091L290.80515,1155.0784 Z M290.80515,1155.0784L304.91257,1155.0759L304.91324,1159.1067L290.80594,1159.1091L290.80515,1155.0784 Z M290.80515,1155.0784L304.91257,1155.0759L304.91324,1159.1067L290.80594,1159.1091L290.80515,1155.0784 Z"/>
</g>
<g style="fill:rgb(88,95,113); fill-opacity:1.0; stroke-linejoin: miter">
<path d="M304.91605,1175.2295L306.93143,1175.229L306.9311,1173.2136L306.92896,1161.1216L306.92856,1159.1062L306.9278,1155.0757L306.92752,1153.0603L304.91223,1153.061L290.80487,1153.0632L288.78946,1153.0637L288.78983,1155.0791L288.7906,1159.1096L288.7909,1161.1248L288.79315,1173.217L288.7935,1175.2324L290.8088,1175.2324L304.91605,1175.2295 Z M290.80515,1155.0784L304.91257,1155.0762L304.91324,1159.1067L290.80594,1159.1094L290.80515,1155.0784 Z M290.80624,1161.1245L304.9136,1161.1218L304.9158,1173.2139L290.8085,1173.2166L290.80624,1161.1245 Z"/>
</g>
<g style="fill:rgb(139,181,211); fill-opacity:1.0; stroke-linejoin: miter">
<path d="M304.9158,1173.2141L304.9136,1161.1218L290.80624,1161.1245L302.90045,1173.2144 Z"/>
</g>
<g style="fill:rgb(173,158,127); fill-opacity:1.0; stroke-linejoin: miter">
<path d="M332.6289,1185.301L332.6278,1179.2551L332.6232,1153.0557L313.4774,1153.0593L313.4821,1179.2585L313.48322,1185.3044 Z"/>
</g>
<g style="fill:rgb(112,97,78); fill-opacity:1.0; stroke-linejoin: miter">
<path d="M313.4821,1179.2585L281.2366,1179.2642L281.2377,1185.3098L313.48322,1185.3044L313.48322,1185.3049 Z"/>
</g>
<g style="fill:rgb(112,97,78); fill-opacity:1.0; stroke-linejoin: miter">
<path d="M332.6289,1185.301L332.6289,1185.3013L341.69788,1185.2996L341.69693,1179.2534L332.6278,1179.2551 Z"/>
</g>
<g style="fill:rgb(255,255,255); fill-opacity:1.0; stroke-linejoin: miter">
<path d="M284.33975,1168.9778L284.33975,1168.9778L284.33972,1168.9778L284.33975,1168.9778"/>
</g>
<g style="fill:rgb(0,0,0); fill-opacity:0.36862746; stroke-linejoin: miter">
<path d="M458.5125,1185.095L458.04718,1185.177Q454.73883,1185.4255,438.68698,1185.5747Q422.52408,1185.7234,400.62106,1185.6953Q379.71756,1185.656,367.18472,1185.4653Q363.1691,1185.4036,360.56937,1185.3308L358.3844,1185.2559Q356.5838,1185.1787,356.56357,1185.095Q357.11017,1184.8374,371.49362,1184.6665Q385.8771,1184.4954,407.53802,1184.489Q429.19894,1184.4954,443.58246,1184.6665Q457.96588,1184.8374,458.5125,1185.095"/>
</g>
<g style="fill:rgb(255,255,255); fill-opacity:1.0; stroke-linejoin: miter">
<path d="M423.3843,1139.8774L423.3804,1140.2449Q423.38776,1140.3855,423.21857,1140.9546Q423.13885,1141.175,423.02478,1141.3733Q422.79678,1141.769,422.4311,1142.0769Q422.06497,1142.3823,421.64453,1142.5476Q421.54788,1142.6108,420.98358,1142.7156Q420.75293,1142.7454,420.5089,1142.7397Q419.3383,1142.6626,418.62762,1141.9414Q417.85052,1141.1138,417.835,1140.1716Q417.85242,1139.56,417.90094,1139.4578Q417.95108,1139.2319,418.03873,1139.0234Q418.21387,1138.606,418.53897,1138.2551Q418.87592,1137.8867,419.29132,1137.6658Q419.49887,1137.5549,419.72604,1137.4812Q419.8274,1137.4211,420.45163,1137.3423Q421.04465,1137.3445,421.15033,1137.3877Q421.37518,1137.4297,421.5892,1137.5076Q421.9767,1137.6294,422.48322,1138.0298Q422.80508,1138.313,423.0904,1138.8005Q423.40344,1139.5588,423.3843,1139.8774"/>
</g>
<g style="fill:rgb(75,45,35); fill-opacity:1.0; stroke-linejoin: miter">
<path d="M405.83218,1115.1272L375.97266,1146.9885L435.703,1146.9783L405.83218,1115.1272 Z M405.8368,1140.9375C402.49768,1140.938,399.79022,1138.2314,399.7896,1134.8926C399.78897,1131.5535,402.49548,1128.846,405.83466,1128.8455C409.17392,1128.845,411.88116,1131.5515,411.8817,1134.8901C411.88226,1138.2292,409.17606,1140.9368,405.8368,1140.9375 Z"/>
</g>
<g style="fill:rgb(75,45,35); fill-opacity:1.0; stroke-linejoin: miter">
<path d="M375.61707,1147.3682L375.60785,1147.3782L375.61362,1179.2341L407.8591,1179.2288L407.85443,1153.029L427.00037,1153.0259L427.005,1179.2249L436.074,1179.2234L436.0687,1148.9934L375.61734,1149.0042L375.61707,1147.3682 Z M383.17,1173.1868L383.16776,1161.0947L383.16745,1159.0796L383.1667,1155.0488L383.16632,1153.0334L385.18173,1153.0334L399.28912,1153.0308L401.3044,1153.0303L401.3047,1155.0457L401.30548,1159.0762L401.30582,1161.0916L401.30798,1173.1836L401.3083,1175.1987L399.29294,1175.1995L385.18567,1175.2019L383.17035,1175.2024L383.17,1173.1868 Z"/>
</g>
<g style="fill:rgb(88,95,113); fill-opacity:1.0; stroke-linejoin: miter">
<path d="M435.70316,1146.978L375.97266,1146.9888L375.61707,1147.3682L375.61734,1149.0037L436.06863,1148.9937L436.07773,1148.9934L436.07748,1147.3772 Z"/>
</g>
<g style="fill:rgb(112,97,78); fill-opacity:1.0; stroke-linejoin: miter">
<path d="M443.46957,1146.4209L434.0602,1136.388L434.05817,1124.81L428.01218,1124.811L428.01312,1129.9402L405.83057,1106.2876L368.2062,1146.4338L372.6181,1150.5681L375.60773,1147.3782L375.61707,1147.3682L375.97266,1146.9885L405.83218,1115.1272L435.70316,1146.978L436.07748,1147.3772L439.0591,1150.5566 Z"/>
</g>
<g style="fill:rgb(105,90,105); fill-opacity:1.0; stroke-linejoin: miter">
<path d="M405.83466,1128.8455C402.49548,1128.846,399.78897,1131.5537,399.7896,1134.8926C399.79022,1138.2317,402.49768,1140.938,405.8368,1140.9375C409.17606,1140.9368,411.88226,1138.2292,411.8817,1134.8901C411.88116,1131.5513,409.17392,1128.845,405.83466,1128.8455 Z M405.83643,1138.9221C403.61023,1138.9226,401.80536,1137.1182,401.80487,1134.8921C401.80478,1133.4365,402.5762,1132.1616,403.7327,1131.4529C404.2871,1131.1128,404.9302,1130.9033,405.6194,1130.867C405.6908,1130.863,405.76273,1130.8608,405.8352,1130.8608C408.06134,1130.8604,409.8662,1132.6648,409.86664,1134.8906C409.86694,1137.117,408.06256,1138.9216,405.83643,1138.9221 Z"/>
</g>
<g style="fill:rgb(149,255,255); fill-opacity:1.0; stroke-linejoin: miter">
<path d="M405.83505,1130.8608C408.0609,1130.8604,409.866,1132.6648,409.86642,1134.8906C409.866,1132.6648,408.06113,1130.8604,405.83505,1130.8608 Z"/>
</g>
<g style="fill:rgb(149,255,255); fill-opacity:1.0; stroke-linejoin: miter">
<path d="M405.6191,1130.8667C405.69064,1130.863,405.76273,1130.8608,405.83505,1130.8608C405.76273,1130.8608,405.6908,1130.863,405.6191,1130.8667 Z"/>
</g>
<g style="fill:rgb(178,215,242); fill-opacity:1.0; stroke-linejoin: miter">
<path d="M402.9854,1132.0422C403.20972,1131.8174,403.46066,1131.6199,403.7327,1131.4529C402.57635,1132.1616,401.80478,1133.4365,401.80487,1134.8921C401.80542,1137.1182,403.61032,1138.9226,405.83643,1138.9221C408.06256,1138.9216,409.8668,1137.117,409.86642,1134.8906C409.8667,1136.0037,409.41562,1137.0115,408.68607,1137.7407L402.9854,1132.0422 Z"/>
</g>
<g style="fill:rgb(139,181,211); fill-opacity:1.0; stroke-linejoin: miter">
<path d="M405.83505,1130.8608C405.76273,1130.8608,405.6908,1130.863,405.6191,1130.867C404.92996,1130.9033,404.2871,1131.1128,403.73245,1131.4529C403.46042,1131.6199,403.20972,1131.8174,402.9852,1132.0422L408.68582,1137.7407C409.41537,1137.0115,409.8665,1136.0037,409.8662,1134.8906C409.866,1132.6648,408.0609,1130.8604,405.83505,1130.8608 Z"/>
</g>
<g style="fill:rgb(178,215,242); fill-opacity:1.0; stroke-linejoin: miter">
<path d="M397.2773,1173.1843L385.1831,1161.0942L385.18536,1173.1865L399.29266,1173.1843 Z"/>
</g>
<g style="fill:rgb(139,181,211); fill-opacity:1.0; stroke-linejoin: miter">
<path d="M385.182,1155.0483L399.28943,1155.0459L399.2901,1159.0767L385.18277,1159.0791L385.182,1155.0483 Z M385.182,1155.0483L399.28943,1155.0459L399.2901,1159.0767L385.18277,1159.0791L385.182,1155.0483 Z M385.182,1155.0483L399.28943,1155.0459L399.2901,1159.0767L385.18277,1159.0791L385.182,1155.0483 Z M385.182,1155.0483L399.28943,1155.0459L399.2901,1159.0767L385.18277,1159.0791L385.182,1155.0483 Z"/>
</g>
<g style="fill:rgb(88,95,113); fill-opacity:1.0; stroke-linejoin: miter">
<path d="M399.29294,1175.1995L401.3083,1175.199L401.30798,1173.1836L401.30582,1161.0916L401.30548,1159.0762L401.3047,1155.0457L401.3044,1153.0303L399.28912,1153.031L385.18173,1153.0332L383.16632,1153.0337L383.1667,1155.0488L383.16745,1159.0796L383.16776,1161.0947L383.17,1173.1868L383.17035,1175.2024L385.18567,1175.2024L399.29294,1175.1995 Z M385.182,1155.0483L399.28943,1155.0461L399.2901,1159.0767L385.18277,1159.0791L385.182,1155.0483 Z M385.1831,1161.0942L399.2905,1161.0918L399.29266,1173.1838L385.18536,1173.1865L385.1831,1161.0942 Z"/>
</g>
<g style="fill:rgb(139,181,211); fill-opacity:1.0; stroke-linejoin: miter">
<path d="M399.29266,1173.1841L399.2905,1161.0916L385.1831,1161.0945L397.2773,1173.1843 Z"/>
</g>
<g style="fill:rgb(180,133,89); fill-opacity:1.0; stroke-linejoin: miter">
<path d="M427.0058,1185.271L427.00473,1179.2249L427.0001,1153.0256L407.85428,1153.0293L407.85898,1179.2285L407.86008,1185.2742 Z"/>
</g>
<g style="fill:rgb(112,97,78); fill-opacity:1.0; stroke-linejoin: miter">
<path d="M407.85898,1179.2285L375.61346,1179.2341L375.61456,1185.2798L407.86008,1185.2742L407.86008,1185.2747 Z"/>
</g>
<g style="fill:rgb(112,97,78); fill-opacity:1.0; stroke-linejoin: miter">
<path d="M427.0058,1185.271L427.0058,1185.2712L436.07483,1185.2695L436.07385,1179.2234L427.00473,1179.2251 Z"/>
</g>
<g style="fill:rgb(255,255,255); fill-opacity:1.0; stroke-linejoin: miter">
<path d="M378.7166,1168.9478L378.7166,1168.9478L378.71658,1168.9478L378.7166,1168.9478"/>
</g>
<g style="fill:rgb(0,0,0); fill-opacity:0.36862746; stroke-linejoin: miter">
<path d="M550.1001,1184.8003L549.63477,1184.8826Q546.3264,1185.1311,530.27454,1185.28Q514.1116,1185.429,492.20862,1185.4009Q471.30508,1185.3616,458.77228,1185.1707Q454.7566,1185.1089,452.15692,1185.0361L449.97192,1184.9614Q448.17133,1184.8843,448.1511,1184.8003Q448.6977,1184.5427,463.08118,1184.3718Q477.46466,1184.2009,499.12555,1184.1943Q520.7865,1184.2009,535.17004,1184.3718Q549.55347,1184.5427,550.1001,1184.8003"/>
</g>
<g style="fill:rgb(255,255,255); fill-opacity:1.0; stroke-linejoin: miter">
<path d="M514.9718,1139.583L514.9679,1139.9504Q514.97534,1140.0908,514.80615,1140.6602Q514.72644,1140.8806,514.6123,1141.0786Q514.3843,1141.4746,514.0187,1141.7825Q513.65247,1142.0879,513.23206,1142.2529Q513.1355,1142.3162,512.57117,1142.4211Q512.34045,1142.4507,512.09644,1142.4453Q510.92587,1142.3682,510.21518,1141.6467Q509.43808,1140.8193,509.42258,1139.8772Q509.4399,1139.2656,509.4885,1139.1631Q509.53854,1138.9375,509.6262,1138.7288Q509.80136,1138.3113,510.12656,1137.9604Q510.46347,1137.592,510.87888,1137.3713Q511.0864,1137.2605,511.31357,1137.1865Q511.4149,1137.1267,512.0392,1137.0479Q512.6322,1137.05,512.7379,1137.093Q512.96277,1137.1353,513.17676,1137.2129Q513.5642,1137.335,514.0708,1137.7354Q514.3927,1138.0183,514.678,1138.5059Q514.99097,1139.2644,514.9718,1139.583"/>
</g>
<g style="fill:rgb(97,17,37); fill-opacity:1.0; stroke-linejoin: miter">
<path d="M497.41968,1114.8325L467.56018,1146.6941L527.2905,1146.6838L497.41968,1114.8325 Z M497.42432,1140.6431C494.0852,1140.6436,491.3778,1137.937,491.3772,1134.5979C491.3766,1131.259,494.083,1128.5515,497.42224,1128.5508C500.76147,1128.5505,503.46875,1131.2568,503.46924,1134.5957C503.46985,1137.9348,500.76367,1140.6423,497.42432,1140.6431 Z"/>
</g>
<g style="fill:rgb(97,17,37); fill-opacity:1.0; stroke-linejoin: miter">
<path d="M467.2046,1147.0735L467.19537,1147.0835L467.20114,1178.9397L499.44666,1178.9341L499.44196,1152.7344L518.588,1152.7312L518.5925,1178.9304L527.6616,1178.929L527.65625,1148.699L467.20486,1148.7097L467.2046,1147.0735 Z M474.75757,1172.8923L474.7553,1160.8003L474.755,1158.7849L474.75424,1154.7544L474.75388,1152.739L476.7693,1152.739L490.8767,1152.7363L492.89197,1152.7358L492.8922,1154.751L492.893,1158.7815L492.89343,1160.7971L492.8955,1172.8892L492.89587,1174.9043L490.8805,1174.9048L476.77322,1174.9075L474.7579,1174.9077L474.75757,1172.8923 Z"/>
</g>
<g style="fill:rgb(88,95,113); fill-opacity:1.0; stroke-linejoin: miter">
<path d="M527.2908,1146.6833L467.56018,1146.6941L467.2046,1147.0735L467.20486,1148.7092L527.65625,1148.699L527.6653,1148.699L527.66504,1147.0828 Z"/>
</g>
<g style="fill:rgb(54,22,30); fill-opacity:1.0; stroke-linejoin: miter">
<path d="M535.0571,1146.1262L525.6477,1136.0935L525.64575,1124.5154L519.59973,1124.5164L519.6007,1129.6455L497.4181,1105.9929L459.79376,1146.1394L464.20563,1150.2737L467.19525,1147.0835L467.2046,1147.0735L467.56018,1146.6941L497.41968,1114.8325L527.2908,1146.6833L527.66504,1147.0828L530.6467,1150.262 Z"/>
</g>
<g style="fill:rgb(105,90,105); fill-opacity:1.0; stroke-linejoin: miter">
<path d="M497.42224,1128.5508C494.083,1128.5515,491.3766,1131.259,491.3772,1134.5979C491.3778,1137.9373,494.0852,1140.6436,497.42432,1140.6431C500.76367,1140.6423,503.46985,1137.9348,503.46924,1134.5957C503.46875,1131.2566,500.76147,1128.5505,497.42224,1128.5508 Z M497.42395,1138.6277C495.1978,1138.6279,493.39294,1136.8235,493.39246,1134.5977C493.39233,1133.1421,494.16376,1131.8672,495.3202,1131.1582C495.87463,1130.8181,496.5177,1130.6089,497.2069,1130.5723C497.27832,1130.5686,497.35022,1130.5662,497.42273,1130.5662C499.64886,1130.5659,501.45374,1132.3704,501.45422,1134.596C501.45447,1136.8225,499.6501,1138.6272,497.42395,1138.6277 Z"/>
</g>
<g style="fill:rgb(149,255,255); fill-opacity:1.0; stroke-linejoin: miter">
<path d="M497.4226,1130.5662C499.64844,1130.5659,501.4535,1132.3704,501.45398,1134.596C501.4535,1132.3704,499.64868,1130.5659,497.4226,1130.5662 Z"/>
</g>
<g style="fill:rgb(149,255,255); fill-opacity:1.0; stroke-linejoin: miter">
<path d="M497.20667,1130.5723C497.27814,1130.5684,497.35022,1130.5662,497.4226,1130.5662C497.35022,1130.5662,497.27832,1130.5686,497.20667,1130.5723 Z"/>
</g>
<g style="fill:rgb(178,215,242); fill-opacity:1.0; stroke-linejoin: miter">
<path d="M494.57294,1131.7478C494.79724,1131.523,495.04822,1131.3252,495.3202,1131.1582C494.16394,1131.8672,493.39233,1133.1421,493.39246,1134.5977C493.39294,1136.8235,495.19788,1138.6279,497.42395,1138.6277C499.6501,1138.6272,501.45435,1136.8225,501.45398,1134.596C501.45422,1135.7092,501.00317,1136.717,500.27368,1137.446L494.57294,1131.7478 Z"/>
</g>
<g style="fill:rgb(139,181,211); fill-opacity:1.0; stroke-linejoin: miter">
<path d="M497.4226,1130.5662C497.35022,1130.5662,497.27832,1130.5686,497.20667,1130.5723C496.51752,1130.6089,495.87463,1130.8181,495.31995,1131.1582C495.04797,1131.3252,494.79724,1131.523,494.57275,1131.7478L500.27332,1137.446C501.00293,1136.717,501.45398,1135.7092,501.45374,1134.596C501.4535,1132.3704,499.64844,1130.5659,497.4226,1130.5662 Z"/>
</g>
<g style="fill:rgb(178,215,242); fill-opacity:1.0; stroke-linejoin: miter">
<path d="M488.8649,1172.8896L476.77066,1160.7998L476.77292,1172.8921L490.88025,1172.8896 Z"/>
</g>
<g style="fill:rgb(139,181,211); fill-opacity:1.0; stroke-linejoin: miter">
<path d="M476.76956,1154.7539L490.877,1154.7515L490.8777,1158.782L476.77036,1158.7847L476.76956,1154.7539 Z M476.76956,1154.7539L490.877,1154.7515L490.8777,1158.782L476.77036,1158.7847L476.76956,1154.7539 Z M476.76956,1154.7539L490.877,1154.7515L490.8777,1158.782L476.77036,1158.7847L476.76956,1154.7539 Z M476.76956,1154.7539L490.877,1154.7515L490.8777,1158.782L476.77036,1158.7847L476.76956,1154.7539 Z"/>
</g>
<g style="fill:rgb(88,95,113); fill-opacity:1.0; stroke-linejoin: miter">
<path d="M490.8805,1174.9048L492.89587,1174.9045L492.8955,1172.8892L492.89343,1160.7971L492.893,1158.7815L492.8922,1154.751L492.89197,1152.7358L490.8767,1152.7363L476.7693,1152.7385L474.75388,1152.7393L474.75424,1154.7544L474.755,1158.7849L474.7553,1160.8003L474.75757,1172.8923L474.7579,1174.9077L476.77322,1174.9077L490.8805,1174.9048 Z M476.76956,1154.7539L490.877,1154.7515L490.8777,1158.782L476.77036,1158.7847L476.76956,1154.7539 Z M476.77066,1160.7998L490.87805,1160.7974L490.88025,1172.8892L476.77292,1172.8921L476.77066,1160.7998 Z"/>
</g>
<g style="fill:rgb(139,181,211); fill-opacity:1.0; stroke-linejoin: miter">
<path d="M490.88025,1172.8896L490.87805,1160.7971L476.77066,1160.8L488.8649,1172.8896 Z"/>
</g>
<g style="fill:rgb(173,158,127); fill-opacity:1.0; stroke-linejoin: miter">
<path d="M518.5934,1184.9763L518.5923,1178.9304L518.58765,1152.7312L499.44177,1152.7349L499.44653,1178.9341L499.44763,1184.9797 Z"/>
</g>
<g style="fill:rgb(54,22,30); fill-opacity:1.0; stroke-linejoin: miter">
<path d="M499.44653,1178.9341L467.201,1178.9397L467.2021,1184.9851L499.44763,1184.9797L499.44763,1184.9802 Z"/>
</g>
<g style="fill:rgb(54,22,30); fill-opacity:1.0; stroke-linejoin: miter">
<path d="M518.5934,1184.9763L518.5934,1184.9766L527.66235,1184.9749L527.6614,1178.929L518.5923,1178.9307 Z"/>
</g>
<g style="fill:rgb(255,255,255); fill-opacity:1.0; stroke-linejoin: miter">
<path d="M470.30414,1168.6531L470.30414,1168.6531L470.3041,1168.6533L470.30414,1168.6531"/>
</g>
<g style="fill:rgb(0,0,0); fill-opacity:0.36862746; stroke-linejoin: miter">
<path d="M644.4772,1184.7703L644.01184,1184.8525Q640.7035,1185.1011,624.65173,1185.25Q608.4888,1185.3989,586.5857,1185.3706Q565.6821,1185.3315,553.1493,1185.1406Q549.13367,1185.0789,546.53394,1185.0061L544.3489,1184.9314Q542.54834,1184.8542,542.5281,1184.7703Q543.0747,1184.5127,557.4581,1184.3418Q571.8417,1184.1707,593.5027,1184.1643Q615.1636,1184.1707,629.5471,1184.3418Q643.93054,1184.5127,644.4772,1184.7703"/>
</g>
<g style="fill:rgb(255,255,255); fill-opacity:1.0; stroke-linejoin: miter">
<path d="M609.349,1139.5527L609.3451,1139.9204Q609.3524,1140.0608,609.1832,1140.6301Q609.1035,1140.8506,608.9895,1141.0486Q608.7615,1141.4446,608.39575,1141.7522Q608.02966,1142.0576,607.60913,1142.2229Q607.5126,1142.2861,606.94824,1142.3911Q606.7175,1142.4207,606.4735,1142.4153Q605.303,1142.3381,604.5923,1141.6167Q603.8152,1140.7893,603.7997,1139.8472Q603.817,1139.2354,603.8656,1139.133Q603.9158,1138.9075,604.0034,1138.6987Q604.17847,1138.2815,604.50366,1137.9304Q604.8406,1137.562,605.256,1137.3413Q605.4635,1137.2305,605.6907,1137.1565Q605.792,1137.0967,606.41626,1137.0178Q607.0093,1137.02,607.115,1137.063Q607.33984,1137.1052,607.55383,1137.1829Q607.9414,1137.3049,608.4479,1137.7051Q608.7698,1137.9883,609.05505,1138.4761Q609.36816,1139.2341,609.349,1139.5527"/>
</g>
<g style="fill:rgb(89,71,87); fill-opacity:1.0; stroke-linejoin: miter">
<path d="M591.79675,1114.8025L561.93726,1146.6638L621.6677,1146.6538L591.79675,1114.8025 Z M591.8014,1140.613C588.4623,1140.6135,585.7549,1137.907,585.7543,1134.5679C585.75354,1131.2288,588.4601,1128.5215,591.7993,1128.5208C595.13855,1128.5205,597.8458,1131.2268,597.8463,1134.5657C597.8469,1137.9048,595.14075,1140.6123,591.8014,1140.613 Z"/>
</g>
<g style="fill:rgb(89,71,87); fill-opacity:1.0; stroke-linejoin: miter">
<path d="M561.58167,1147.0435L561.5724,1147.0535L561.5781,1178.9097L593.8237,1178.904L593.8191,1152.7043L612.9651,1152.7012L612.9697,1178.9004L622.0387,1178.8987L622.0333,1148.669L561.5819,1148.6797L561.58167,1147.0435 Z M569.13464,1172.8623L569.1323,1160.7703L569.1321,1158.7549L569.1312,1154.7244L569.13086,1152.709L571.14636,1152.709L585.2538,1152.7063L587.26904,1152.7058L587.2693,1154.721L587.27014,1158.7515L587.2704,1160.7668L587.2726,1172.8589L587.27295,1174.8743L585.25757,1174.8748L571.15027,1174.8774L569.1349,1174.8777L569.13464,1172.8623 Z"/>
</g>
<g style="fill:rgb(88,95,113); fill-opacity:1.0; stroke-linejoin: miter">
<path d="M621.66785,1146.6533L561.93726,1146.6641L561.58167,1147.0435L561.5819,1148.6792L622.0333,1148.669L622.04236,1148.669L622.0421,1147.0527 Z"/>
</g>
<g style="fill:rgb(34,43,50); fill-opacity:1.0; stroke-linejoin: miter">
<path d="M629.4342,1146.0962L620.0249,1136.0635L620.0228,1124.4854L613.9768,1124.4863L613.9778,1129.6155L591.79517,1105.9629L554.1708,1146.1094L558.58264,1150.2434L561.57227,1147.0535L561.58167,1147.0435L561.93726,1146.6638L591.79675,1114.8025L621.66785,1146.6533L622.0421,1147.0527L625.0238,1150.2319 Z"/>
</g>
<g style="fill:rgb(105,90,105); fill-opacity:1.0; stroke-linejoin: miter">
<path d="M591.7993,1128.5208C588.4601,1128.5215,585.75354,1131.229,585.7543,1134.5679C585.7549,1137.9072,588.4623,1140.6135,591.8014,1140.613C595.14075,1140.6123,597.8469,1137.9048,597.8463,1134.5657C597.8458,1131.2266,595.13855,1128.5205,591.7993,1128.5208 Z M591.801,1138.5974C589.5748,1138.5979,587.77,1136.7935,587.76953,1134.5674C587.7694,1133.112,588.5408,1131.8372,589.69727,1131.1282C590.2517,1130.7881,590.8948,1130.5789,591.584,1130.5422C591.6554,1130.5386,591.7273,1130.5361,591.7998,1130.5361C594.026,1130.5359,595.8308,1132.3403,595.8313,1134.5659C595.83154,1136.7922,594.0272,1138.5972,591.801,1138.5974 Z"/>
</g>
<g style="fill:rgb(149,255,255); fill-opacity:1.0; stroke-linejoin: miter">
<path d="M591.7997,1130.5361C594.0255,1130.5359,595.8307,1132.3403,595.83105,1134.5659C595.8307,1132.3403,594.02576,1130.5359,591.7997,1130.5361 Z"/>
</g>
<g style="fill:rgb(149,255,255); fill-opacity:1.0; stroke-linejoin: miter">
<path d="M591.58374,1130.5422C591.6553,1130.5383,591.7273,1130.5361,591.7997,1130.5361C591.7273,1130.5361,591.6554,1130.5386,591.58374,1130.5422 Z"/>
</g>
<g style="fill:rgb(178,215,242); fill-opacity:1.0; stroke-linejoin: miter">
<path d="M588.9501,1131.7178C589.1743,1131.4929,589.4253,1131.2952,589.69727,1131.1282C588.541,1131.8372,587.7694,1133.112,587.76953,1134.5674C587.77,1136.7935,589.57495,1138.5979,591.801,1138.5974C594.0272,1138.5972,595.8314,1136.7922,595.83105,1134.5659C595.8313,1135.6792,595.38025,1136.687,594.65076,1137.416L588.9501,1131.7178 Z"/>
</g>
<g style="fill:rgb(139,181,211); fill-opacity:1.0; stroke-linejoin: miter">
<path d="M591.7997,1130.5361C591.7273,1130.5361,591.6554,1130.5386,591.58374,1130.5422C590.89453,1130.5789,590.2517,1130.7881,589.697,1131.1282C589.42505,1131.2952,589.1743,1131.4929,588.9498,1131.7178L594.6505,1137.416C595.38,1136.687,595.8312,1135.6792,595.8308,1134.5659C595.8307,1132.3403,594.0255,1130.5359,591.7997,1130.5361 Z"/>
</g>
<g style="fill:rgb(178,215,242); fill-opacity:1.0; stroke-linejoin: miter">
<path d="M583.24194,1172.8596L571.1477,1160.7698L571.1499,1172.862L585.2573,1172.8596 Z"/>
</g>
<g style="fill:rgb(139,181,211); fill-opacity:1.0; stroke-linejoin: miter">
<path d="M571.1466,1154.7239L585.254,1154.7214L585.25476,1158.752L571.14734,1158.7544L571.1466,1154.7239 Z M571.1466,1154.7239L585.254,1154.7214L585.25476,1158.752L571.14734,1158.7544L571.1466,1154.7239 Z M571.1466,1154.7239L585.254,1154.7214L585.25476,1158.752L571.14734,1158.7544L571.1466,1154.7239 Z M571.1466,1154.7239L585.254,1154.7214L585.25476,1158.752L571.14734,1158.7544L571.1466,1154.7239 Z"/>
</g>
<g style="fill:rgb(88,95,113); fill-opacity:1.0; stroke-linejoin: miter">
<path d="M585.25757,1174.8748L587.27295,1174.8745L587.2726,1172.8589L587.2704,1160.7668L587.27014,1158.7515L587.2693,1154.721L587.26904,1152.7058L585.2538,1152.7063L571.14636,1152.7085L569.13086,1152.709L569.1312,1154.7244L569.1321,1158.7549L569.1323,1160.7703L569.13464,1172.8623L569.1349,1174.8777L571.15027,1174.8777L585.25757,1174.8748 Z M571.1466,1154.7239L585.254,1154.7214L585.25476,1158.752L571.14734,1158.7546L571.1466,1154.7239 Z M571.1477,1160.7698L585.2551,1160.7673L585.2573,1172.8591L571.1499,1172.862L571.1477,1160.7698 Z"/>
</g>
<g style="fill:rgb(139,181,211); fill-opacity:1.0; stroke-linejoin: miter">
<path d="M585.2573,1172.8594L585.2551,1160.7671L571.1477,1160.7698L583.24194,1172.8596 Z"/>
</g>
<g style="fill:rgb(180,133,89); fill-opacity:1.0; stroke-linejoin: miter">
<path d="M612.97046,1184.9463L612.96936,1178.9004L612.9647,1152.7012L593.819,1152.7046L593.8236,1178.904L593.8247,1184.9497 Z"/>
</g>
<g style="fill:rgb(34,43,50); fill-opacity:1.0; stroke-linejoin: miter">
<path d="M593.8236,1178.904L561.578,1178.9097L561.5791,1184.9551L593.8247,1184.9497L593.8247,1184.9502 Z"/>
</g>
<g style="fill:rgb(34,43,50); fill-opacity:1.0; stroke-linejoin: miter">
<path d="M612.97046,1184.9463L612.97046,1184.9465L622.03955,1184.9448L622.0386,1178.8987L612.96936,1178.9004 Z"/>
</g>
<g style="fill:rgb(255,255,255); fill-opacity:1.0; stroke-linejoin: miter">
<path d="M564.68115,1168.623L564.68115,1168.623L564.68115,1168.6233L564.68115,1168.623"/>
</g>
<g style="fill:rgb(255,177,147); fill-opacity:1.0; stroke-linejoin: miter">
<path d="M515.1977,1172.7843C516.0985,1173.7417,516.3216,1175.0396,515.86804,1176.826C515.75116,1177.2784,515.6473,1177.7598,515.64105,1177.9032C515.6347,1178.0466,515.5742,1178.2925,515.5142,1178.4546C515.4541,1178.6165,515.376,1179.0406,515.3405,1179.397C515.2057,1180.7954,515.1157,1181.3383,514.9105,1181.9138C514.79315,1182.2501,514.63837,1182.763,514.5645,1183.0635C514.4832,1183.3594,514.38947,1183.658,514.35144,1183.7183C514.3087,1183.786,514.2626,1184.0093,514.2408,1184.2268C514.2193,1184.445,514.18256,1184.6533,514.154,1184.6985C514.12555,1184.7437,514.0908,1184.9319,514.08344,1185.1273C514.0686,1185.3179,513.988,1185.6458,513.8919,1185.848C513.65186,1186.4121,513.3287,1187.492,513.2732,1187.9304C513.21875,1188.3169,513.0569,1189.6245,512.9311,1190.6078C512.8941,1190.9001,512.8702,1191.2217,512.88477,1191.315C512.9458,1191.8689,512.46423,1193.617,511.95526,1194.6742C511.784,1195.0292,511.6192,1195.4406,511.5932,1195.5819C511.56238,1195.7308,511.44812,1195.9956,511.3341,1196.1763C511.03973,1196.6428,510.06232,1198.9933,510.00323,1199.3872C509.9732,1199.5682,509.87646,1199.9386,509.7942,1200.2024C509.7121,1200.4662,509.54492,1200.9816,509.42084,1201.3452C509.3042,1201.7134,509.19794,1202.099,509.19562,1202.2026C509.17474,1202.4525,508.5188,1203.943,508.0351,1204.8269C507.57507,1205.673,507.29114,1206.3567,507.1684,1206.8684C507.11945,1207.0793,507.00598,1207.376,506.911,1207.5266C506.8161,1207.6772,506.67413,1208.0189,506.59192,1208.2827C506.50964,1208.5466,506.24872,1209.1604,506.00153,1209.6355C505.76184,1210.1157,505.56293,1210.5479,505.56458,1210.612C505.5595,1210.7036,505.43573,1210.9832,504.5617,1212.7361C503.91388,1214.0637,503.8548,1214.6576,504.36548,1214.8324C504.5746,1214.9012,505.41467,1214.7365,505.49072,1214.6162C505.51434,1214.5784,505.71204,1214.4822,505.9273,1214.4075C506.14264,1214.333,506.482,1214.1787,506.68427,1214.075C507.31006,1213.7332,508.25854,1213.1633,508.4062,1213.046C508.48376,1212.9897,508.61243,1212.9026,508.68805,1212.8661C509.16626,1212.6418,510.24207,1211.8369,510.59753,1211.4402C510.74628,1211.271,511.00385,1211.0127,511.1828,1210.8625C511.67316,1210.4352,513.15985,1208.7954,513.4352,1208.3589C513.5804,1208.1453,513.8277,1207.87,513.9923,1207.7422C514.92523,1207.0471,515.2995,1206.6204,515.91144,1205.5334C517.33466,1203.0432,517.8425,1202.0377,517.9112,1201.6288C517.9498,1201.4009,518.1245,1200.89,518.2921,1200.491C518.54645,1199.9043,518.67474,1199.7009,519.0042,1199.3618C519.514,1198.8206,520.819,1198.0027,521.5851,1197.7388C522.57886,1197.3972,523.61096,1197.596,524.2148,1198.2399C524.50696,1198.5609,524.7954,1199.5215,524.6625,1199.7319C524.6198,1199.7998,524.5574,1200.0656,524.5167,1200.3134C524.46716,1200.6925,524.32904,1200.9946,523.73615,1202.0516C523.3342,1202.7555,522.93005,1203.5632,522.8411,1203.8545C522.7447,1204.1407,522.5392,1204.6002,522.3683,1204.8712C522.1974,1205.1421,521.97076,1205.6517,521.85895,1206.0123C521.7472,1206.3734,521.5679,1206.8073,521.4637,1206.9729C521.36194,1207.1508,521.2116,1207.4559,521.1307,1207.6678C521.04297,1207.9069,520.7457,1208.3613,520.34174,1208.8851C519.7994,1209.5951,519.64545,1209.8558,519.3331,1210.5846C519.02826,1211.318,518.5828,1212.0577,516.45886,1215.4421C513.5041,1220.1434,513.9627,1219.6333,511.96307,1220.5184C510.53986,1221.1569,510.41315,1221.2242,509.7732,1221.5886C509.47626,1221.7592,508.92877,1222.0768,508.53925,1222.2938C508.15723,1222.5157,507.765,1222.7206,507.6621,1222.7505C507.5639,1222.7728,507.46173,1222.8346,507.438,1222.872C507.40955,1222.9174,507.22424,1223.011,507.02863,1223.0876C506.7254,1223.2015,505.59406,1223.7609,504.64868,1224.2588C504.34894,1224.4169,502.84167,1225.3392,502.19574,1225.763C501.65656,1226.1173,501.1123,1226.5632,500.9936,1226.7512C500.9414,1226.8341,500.77484,1226.9816,500.6197,1227.0942C500.4693,1227.199,500.02606,1227.635,499.63928,1228.0645C499.01697,1228.7346,498.89563,1228.9104,498.724,1229.3494C498.61523,1229.6384,498.45044,1230.0499,498.35516,1230.2845C498.26465,1230.5115,498.16895,1230.8298,498.14844,1230.9957C498.12518,1231.1494,498.0561,1231.4426,497.9967,1231.6366C497.93744,1231.8306,497.82532,1232.2753,497.7531,1232.6401C497.68567,1232.9973,497.55444,1233.4723,497.46393,1233.699C497.30463,1234.1353,497.04718,1235.2776,497.07178,1235.4718C497.08105,1235.5406,496.98468,1236.0271,496.85712,1236.5464C496.51666,1237.9204,496.4538,1238.2699,496.44818,1238.5293C496.45135,1238.6576,496.39575,1238.896,496.33563,1239.058C496.2754,1239.2201,496.18658,1239.711,496.13116,1240.1494C496.07843,1240.6001,496.00214,1241.0045,495.969,1241.0571C495.9356,1241.11,495.9038,1241.3105,495.90118,1241.4983C495.89844,1241.686,495.87598,1241.8718,495.85217,1241.9094C495.76202,1242.0525,495.4336,1244.8754,495.49353,1244.9972C495.50946,1245.0391,495.48138,1245.2001,495.41846,1245.3499C495.30585,1245.6786,495.16418,1246.6202,495.20013,1246.8639C495.21484,1246.9574,495.19714,1247.1357,495.16077,1247.2599C495.12445,1247.3844,495.1084,1247.6267,495.11237,1247.787C495.12396,1247.9523,495.05444,1248.8131,494.96313,1249.6919C494.71484,1252.0707,494.73334,1252.6084,495.16113,1255.2662C495.69476,1258.591,496.0144,1259.5186,496.96448,1260.6648C497.24707,1261.0009,497.60376,1261.4364,497.76697,1261.6443C497.9275,1261.8405,498.2917,1262.2806,498.57428,1262.6166C498.85217,1262.9602,499.10535,1263.3091,499.13983,1263.4044C499.16217,1263.5027,499.22394,1263.605,499.26154,1263.6287C499.29913,1263.6525,499.45837,1264.184,499.61713,1264.7997C499.77124,1265.423,499.92004,1265.9376,499.95007,1265.9567C499.97266,1265.971,500.0351,1266.389,500.08966,1266.8864C500.14154,1267.3713,500.20667,1267.802,500.22723,1267.8358C500.24786,1267.8698,500.3092,1268.34,500.35028,1268.8918C500.39624,1269.4364,500.48004,1270.2047,500.5415,1270.5906C500.6032,1270.9768,500.63635,1271.4078,500.62994,1271.5513C500.60266,1272.0284,500.84094,1274.4197,500.99744,1275.139C501.0595,1275.4413,501.1405,1275.9132,501.17242,1276.1963C501.2708,1277.058,499.70996,1283.4001,498.83948,1282.9568C497.95813,1282.5171,497.6136,1281.88,497.56982,1281.8732C493.91217,1281.2869,495.24133,1277.9265,485.63702,1271.8691C476.30368,1265.9828,468.68277,1261.1342,468.7017,1261.1039C468.72543,1261.0662,468.6929,1260.9512,468.6235,1260.8444C468.56638,1260.7347,468.3107,1260.2893,468.07004,1259.8536C467.82193,1259.413,467.46243,1258.7655,467.2562,1258.4252C467.05484,1258.0771,466.87802,1257.7238,466.86612,1257.6425C466.85416,1257.5614,466.82236,1257.478,466.78476,1257.4543C466.73203,1257.4211,466.49057,1256.9532,466.22128,1256.3625C465.76132,1255.357,465.5258,1254.8296,465.4849,1254.6777C465.4067,1254.418,464.62265,1253.0919,464.35507,1252.7655C464.2227,1252.6083,464.0566,1252.388,463.98935,1252.2614C463.9142,1252.1298,463.81485,1252.0039,463.77713,1251.98C463.69443,1251.9281,462.8104,1250.5604,462.57736,1250.1294C462.50992,1250.0027,462.30856,1249.6548,462.12302,1249.3484C461.93753,1249.042,461.70914,1248.6034,461.60715,1248.3812C461.51004,1248.1515,461.35196,1247.852,461.25162,1247.694C461.15408,1247.5483,460.98557,1247.2316,460.87332,1246.9927C460.76108,1246.7533,460.5505,1246.3365,460.39316,1246.069C460.2405,1245.7938,460.02518,1245.3845,459.92056,1245.1503C459.76828,1244.791,459.43674,1244.1825,458.95908,1243.3551C458.6752,1242.8708,457.31802,1240.7524,457.2653,1240.7191C457.22763,1240.6954,457.18845,1240.6074,457.18118,1240.5187C457.16653,1240.4253,457.0813,1240.2769,456.99487,1240.1803C456.9038,1240.0912,456.54468,1239.5597,456.19226,1239.0009C455.84467,1238.4343,455.4931,1237.9077,455.4217,1237.8204C455.34283,1237.7289,455.1902,1237.4536,455.08276,1237.207C454.97992,1236.9526,454.85382,1236.6522,454.8015,1236.5352C454.6183,1236.1246,454.3687,1235.5359,454.16333,1235.0277C454.0428,1234.7518,453.8457,1234.2802,453.71484,1233.9872C453.57922,1233.7018,453.39325,1233.2797,453.2989,1233.0623C453.20453,1232.845,453.05298,1232.5177,452.96228,1232.3448C452.5578,1231.5848,451.7812,1230.0638,451.5959,1229.6737C451.48376,1229.4346,451.3219,1229.0906,451.23108,1228.9175C451.0702,1228.6056,450.70575,1227.7656,450.59106,1227.4302C450.56415,1227.3395,450.4074,1226.904,450.2602,1226.4536C450.10822,1226.0106,449.9253,1225.5164,449.85706,1225.3575C449.56165,1224.7083,449.49615,1224.5616,449.3717,1224.3253C449.2968,1224.1941,449.17426,1223.9379,449.0929,1223.75C449.0144,1223.5741,448.77094,1223.1261,448.5517,1222.7562C448.28845,1222.3063,448.09332,1221.815,447.9635,1221.2701C447.72723,1220.2268,447.8579,1219.6359,448.65723,1218.1517C448.96417,1217.5983,449.20978,1217.0588,449.22437,1216.9523C449.22668,1216.8485,449.35437,1216.5292,449.49042,1216.2468C449.80054,1215.6217,450.15894,1214.4695,450.12036,1214.2139C450.1103,1214.1127,450.1577,1213.8376,450.2257,1213.5964C450.76318,1211.8099,450.87756,1211.2615,450.90808,1210.5127C450.95532,1209.5533,451.18085,1207.4443,451.31946,1206.7742C451.71405,1204.8137,451.98907,1204.2611,452.6664,1204.0045C453.08957,1203.8506,453.77982,1203.9071,454.1261,1204.1256C454.38953,1204.2917,455.10242,1204.3628,455.29163,1204.2294C455.35968,1204.1881,455.83203,1203.5391,456.34637,1202.7904C457.3465,1201.3379,458.57635,1199.7887,459.19373,1199.2102C459.40112,1199.0146,459.64087,1198.7346,459.72638,1198.5991C460.0301,1198.1174,460.89038,1197.6709,461.9392,1197.4594C462.4745,1197.3445,462.94934,1197.2756,462.98694,1197.2993C463.03204,1197.328,463.26886,1197.3193,463.52747,1197.2932C463.7738,1197.2695,464.09644,1197.2418,464.22473,1197.2384C464.35303,1197.2351,464.86627,1197.2222,465.35962,1197.2073C466.8794,1197.1663,467.19073,1197.1733,467.64142,1197.2261C467.82233,1197.2559,468.3399,1197.3193,468.77557,1197.3625C469.21393,1197.4182,469.6081,1197.4773,469.6532,1197.5059C469.73584,1197.5581,471.0163,1197.7131,471.92627,1197.7717C472.2281,1197.7935,472.98816,1197.873,473.6047,1197.9463C474.22592,1198.012,474.90677,1198.0837,475.10477,1198.1033C475.58957,1198.1355,476.1389,1198.4822,476.6055,1199.0603C477.02322,1199.5659,477.53415,1200.3405,477.6171,1200.5927C477.67862,1200.7788,478.60892,1202.3229,479.2333,1203.2848C479.4695,1203.6442,479.6982,1203.9988,479.73477,1204.0746C479.77127,1204.1503,479.95676,1204.4567,480.147,1204.7552C480.33737,1205.0546,480.5435,1205.3949,480.61557,1205.5138C480.683,1205.6405,480.88998,1206.0132,481.08383,1206.3563C481.2748,1206.6873,481.51364,1207.143,481.608,1207.3602C481.94907,1208.1539,482.30258,1208.661,482.67416,1208.9059C483.12387,1209.2103,483.36063,1209.2019,484.46286,1208.8553C485.21475,1208.6141,485.55045,1208.4159,486.27853,1207.7281C486.66202,1207.3705,487.60745,1205.7047,487.64474,1205.3285C487.65768,1205.1578,487.78323,1204.4584,487.9238,1203.7682C488.0566,1203.0736,488.2122,1202.1932,488.2571,1201.8217C488.30673,1201.4429,488.37064,1201.0411,488.4022,1200.9242C488.4338,1200.8075,488.4542,1200.4415,488.45078,1200.1134C488.43735,1199.2843,488.44113,1199.2445,488.57938,1197.9745C488.7363,1196.4744,488.76114,1196.1849,488.74075,1195.8668C488.73117,1195.682,488.8638,1195.0713,489.0897,1194.246C489.1711,1193.9502,489.26877,1193.6119,489.29758,1193.4829C489.39908,1193.1047,489.5322,1191.4424,489.48648,1191.0978C489.4645,1190.9155,489.44247,1190.5336,489.44553,1190.262C489.44577,1189.9778,489.44553,1189.5779,489.4399,1189.3535C489.41745,1188.3716,489.40323,1187.9102,489.3906,1187.7969C489.37656,1187.7355,489.3773,1187.5675,489.39108,1187.429C489.40005,1187.2976,489.37692,1186.9675,489.33078,1186.707C489.25925,1186.22,489.2109,1185.5795,489.2125,1184.9597C489.21713,1184.0684,489.17917,1183.6448,489.08615,1183.0916C488.91245,1182.1823,488.7914,1180.9065,488.75815,1179.7916C488.73325,1178.7133,488.63095,1177.891,488.36954,1176.5372C488.28372,1176.0731,488.17825,1175.3226,488.132,1174.8622C487.85287,1171.8348,487.68307,1170.686,487.50235,1170.5723C487.4045,1170.5105,487.29507,1169.1158,487.35342,1168.6897C487.38168,1168.4446,487.44223,1167.9988,487.48392,1167.699C487.52567,1167.3993,487.59207,1167.094,487.6301,1167.0337C487.66806,1166.9735,487.74734,1166.6973,487.80698,1166.4193C488.03787,1165.3025,488.90274,1163.9646,489.73312,1163.4153C490.98636,1162.596,492.9495,1163.0029,493.56998,1164.2043C493.82175,1164.6892,494.1241,1165.7109,494.16458,1166.2311C494.18246,1166.4529,494.29776,1167.1042,494.4133,1167.6714C494.52408,1168.2463,494.67673,1169.0054,494.7499,1169.3566C494.8256,1169.7202,494.96396,1170.3018,495.07376,1170.6445C495.17892,1170.9949,495.30844,1171.6238,495.35098,1172.04C495.4012,1172.4608,495.5397,1173.2423,495.66202,1173.7826C495.78152,1174.3104,495.9246,1175.0844,495.9719,1175.493C496.06058,1176.1698,496.23666,1177.175,496.41,1177.968C496.44876,1178.14,496.47794,1178.4108,496.47452,1178.5663C496.47855,1178.7268,496.52853,1178.9478,496.59317,1179.0621C496.8779,1179.5786,497.49826,1181.0637,497.6545,1181.5831C498.1494,1183.2844,498.56317,1185.481,498.55298,1186.3478C498.5421,1187.1827,498.95422,1189.5151,499.62402,1192.4731C500.04095,1194.3143,500.12445,1194.8826,500.11066,1195.9889C500.1045,1196.1322,500.05634,1196.5756,499.9897,1196.9647C499.71362,1198.737,499.72577,1199.2181,500.0268,1199.4081C500.14734,1199.4839,500.31128,1199.5243,500.3944,1199.4926C500.65894,1199.4069,501.03754,1198.8566,501.34906,1198.0958C501.51398,1197.6842,501.86945,1197.0035,502.14,1196.5746C502.406,1196.153,502.65118,1195.6974,502.67236,1195.5636C502.7013,1195.4346,502.92773,1194.9249,503.17706,1194.4298C503.42615,1193.9347,503.75262,1193.1832,503.89777,1192.7697C504.0551,1192.3535,504.25793,1191.8816,504.3625,1191.7161C504.46692,1191.5505,504.65344,1191.1211,504.77484,1190.7452C504.899,1190.3816,505.20215,1189.5839,505.44897,1188.9927C505.93762,1187.8174,506.07404,1187.4509,506.17932,1187.0334C506.2151,1186.8771,506.351,1186.3947,506.4707,1185.9547C506.6026,1185.5117,506.71594,1185.0153,506.73358,1184.837C506.75415,1184.6711,506.82336,1184.378,506.8853,1184.1962C507.1695,1183.4285,507.48676,1182.408,507.49976,1182.2373C507.50208,1182.1335,507.6385,1181.7672,507.78784,1181.4302C507.94977,1181.0903,508.0995,1180.6692,508.13214,1180.5007C508.1527,1180.3347,508.26538,1180.006,508.36334,1179.7834C508.4757,1179.539,508.59802,1178.9111,508.66974,1178.2305C508.7329,1177.5128,508.8534,1176.9049,508.98846,1176.5905C509.10968,1176.2987,509.63367,1175.4508,510.26672,1174.514C511.30408,1172.9692,511.3496,1172.9138,511.8329,1172.598C512.4428,1172.2146,513.3206,1172.0736,514.1473,1172.2479C514.7231,1172.3691,514.8906,1172.4537,515.1977,1172.7843L515.19855,1172.7848 Z M467.65912,1206.3062C467.27533,1206.264,466.88684,1206.2294,466.80286,1206.229C466.2021,1206.1974,465.6092,1206.0865,465.25238,1205.9352C464.52826,1205.6151,464.02063,1205.6525,463.32562,1206.0874C462.65704,1206.497,462.0412,1206.9397,461.97473,1207.045C461.94147,1207.0978,461.70752,1207.3185,461.45587,1207.5175C460.9721,1207.9174,460.4923,1208.0775,459.7423,1208.099C458.7528,1208.1167,457.73907,1208.2559,457.59424,1208.3854C457.2202,1208.7281,457.31995,1209.254,457.93365,1210.2828C458.31775,1210.9249,458.49615,1211.8265,458.54022,1213.2745C458.54108,1213.5066,458.70166,1214.3865,458.87842,1215.224C459.05524,1216.0613,459.2102,1216.9167,459.2179,1217.1213C459.24298,1217.9158,459.18787,1218.4702,459.07867,1218.6433C458.80334,1219.08,458.7682,1219.352,458.92816,1219.7161C459.0197,1219.9211,459.17908,1220.1688,459.28058,1220.275C459.44495,1220.4313,459.58374,1220.645,460.23108,1221.7373C460.30872,1221.8809,460.4416,1222.154,460.51813,1222.3495C460.5946,1222.5452,460.72076,1222.8456,460.80408,1223.0139C460.88733,1223.1821,461.08826,1223.614,461.2558,1223.9825C461.61737,1224.8103,462.4028,1226.2843,462.50064,1226.346C462.54587,1226.3745,462.5878,1226.4746,462.60263,1226.5679C462.64206,1226.856,463.50876,1227.3499,464.1055,1227.4213C464.53635,1227.4719,465.6586,1227.3276,466.69705,1227.0989C466.86142,1227.0552,467.3259,1226.9695,467.71664,1226.9004C468.10757,1226.8313,468.895,1226.6335,469.45877,1226.4736C470.0198,1226.3014,470.54208,1226.1573,470.611,1226.1481C471.14902,1226.0457,473.2946,1225.1786,473.74118,1224.8711C474.0789,1224.6525,474.33633,1224.1943,474.29892,1223.8865C474.28537,1223.7412,474.25723,1223.2185,474.24234,1222.7251C474.2274,1222.2318,474.2009,1221.7732,474.19656,1221.6969C474.10507,1221.0079,474.0721,1220.2927,474.10422,1219.8081C474.1282,1219.4866,474.1343,1219.1432,474.12424,1219.0422C474.10208,1218.9438,474.11386,1218.8252,474.13766,1218.7876C474.24686,1218.6143,473.93277,1216.7438,473.66257,1215.921C473.62534,1215.8135,473.51535,1215.4703,473.42136,1215.1693C473.24442,1214.6156,472.83914,1213.8234,472.68112,1213.7238C472.5004,1213.6097,471.1876,1211.4877,470.85556,1210.7628C470.71445,1210.453,470.5768,1210.1874,470.54678,1210.1685C470.52408,1210.1542,470.43344,1209.9813,470.34732,1209.8007C470.2585,1209.6078,470.01266,1209.0636,469.79294,1208.5778C469.1339,1207.1205,468.89404,1206.7167,468.5827,1206.5096C468.46228,1206.4337,468.0476,1206.3406,467.65912,1206.3062L467.6599,1206.3068 Z"/>
</g>
<g style="fill:rgb(255,177,147); fill-opacity:1.0; stroke-linejoin: miter">
</g>
<g style="fill:rgb(255,255,255); fill-opacity:1.0; stroke-linejoin: miter">
<path d="M463.05606,1252.6738L480.5293,1252.6741L498.00262,1252.6746Q498.00262,1257.2054,498.00262,1261.7367Q480.52936,1261.7363,463.05606,1261.7365Q463.05606,1257.2052,463.05606,1252.6738"/>
</g>
<g style="fill:rgb(0,0,0); fill-opacity:1.0; stroke-linejoin: miter">
<path d="M462.02417,1258.3872L461.71326,1283.4545L501.83768,1283.4545L502.14255,1258.8855L462.02417,1258.3872 Z"/>
</g>
<g style="fill:rgb(0,78,255); fill-opacity:0.06666667; stroke-linejoin: miter">
<path d="M481.23914,1150.9941L481.0283,1153.9691Q479.51205,1163.1337,471.8546,1168.7166Q465.09186,1173.3967,455.9905,1172.8031Q446.0726,1171.6649,440.20172,1164.8326Q438.0559,1162.5774,435.9406,1157.07Q434.87354,1153.3795,435.10928,1149.8384Q435.20483,1145.8643,437.31274,1141.5304Q438.4746,1138.9009,441.8386,1135.5477Q449.11942,1128.8096,459.00195,1129.0704Q461.0515,1129.1632,462.9543,1129.5319Q463.99744,1129.5437,468.33258,1131.2583Q471.38785,1132.5228,475.09674,1136.092Q478.22772,1139.4376,479.4558,1142.4421Q481.23367,1147.1658,481.23914,1150.9941"/>
</g>
<g style="fill:rgb(255,255,255); fill-opacity:0.03529412; stroke-linejoin: miter">
<path d="M432.74573,1147.9219L481.64487,1147.922L481.64487,1162.1951L432.74573,1162.1952L432.74573,1147.9219"/>
</g>
<g style="fill:rgb(60,70,79); fill-opacity:1.0; stroke-linejoin: miter">
<path d="M455.62238,1123.8704C453.95312,1123.9998,452.05792,1124.3221,450.57245,1124.7305C449.93707,1124.9042,449.133,1125.1504,448.75427,1125.2853C446.50198,1126.0846,444.7833,1126.9236,442.80814,1128.1855C442.0627,1128.6625,440.8796,1129.5345,440.13937,1130.1531C438.7321,1131.328,437.23312,1132.8716,436.15298,1134.2538C434.37686,1136.5292,433.01874,1138.9286,432.03555,1141.5267C430.92734,1144.4559,430.3605,1147.3883,430.27414,1150.6571C430.2592,1151.2471,430.32748,1153.1241,430.38467,1153.6906C430.65067,1156.2888,431.14462,1158.4358,432.0048,1160.7339C433.12833,1163.7418,434.7612,1166.5004,436.8816,1168.9718C438.2578,1170.5774,440.018,1172.1896,441.71545,1173.3998C443.32626,1174.5492,444.798,1175.393,446.57864,1176.1866C448.51926,1177.05,450.48062,1177.6661,452.5618,1178.0608C453.90024,1178.3158,455.37234,1178.4791,456.68466,1178.5181L456.91788,1178.5255L456.98825,1180.4596L457.05887,1182.3958L456.47043,1182.4175C456.0211,1182.4335,455.85037,1182.4491,455.7487,1182.4779C455.28543,1182.6135,454.91098,1182.988,454.7747,1183.4497C454.71976,1183.6322,454.72,1183.6392,454.74002,1184.376C454.75034,1184.7844,455.06,1193.5951,455.4239,1203.9567C456.0066,1220.447,456.09302,1222.8168,456.12762,1222.9547C456.17584,1223.1494,456.32794,1223.436,456.461,1223.5775C456.58698,1223.712,456.77435,1223.8424,456.9599,1223.92C457.26373,1224.0507,457.1587,1224.0499,460.30365,1223.9285L463.17023,1223.8173L463.32086,1223.7524C463.54572,1223.655,463.70605,1223.542,463.85962,1223.3696C464.0132,1223.1973,464.095,1223.0597,464.1713,1222.8353L464.22287,1222.6827L464.10507,1219.0101C464.03824,1216.9891,463.7268,1208.1328,463.41046,1199.3269L462.83612,1183.3159L462.77814,1183.1674C462.61426,1182.7439,462.28326,1182.4362,461.84656,1182.2944C461.68243,1182.241,461.6618,1182.2395,461.0412,1182.2552L460.4046,1182.2693L460.41302,1182.0635C460.4157,1181.9492,460.39075,1181.0779,460.3562,1180.1292L460.2934,1178.405L460.69836,1178.3628C461.16486,1178.3162,461.735,1178.2336,462.4408,1178.1097C462.92407,1178.0259,463.06006,1177.9979,463.73297,1177.8479C465.61993,1177.4275,467.65845,1176.7139,469.48303,1175.8342C469.92303,1175.6243,471.00958,1175.0454,471.365,1174.8362C471.78088,1174.5903,471.91486,1174.5078,472.16937,1174.3479C475.8573,1172.021,478.95477,1168.8435,481.17783,1165.1085C482.05136,1163.6382,482.80228,1162.0554,483.3854,1160.4493C484.3171,1157.8801,484.85953,1155.1542,484.98227,1152.4437C485.04868,1150.9454,484.99118,1149.3691,484.81448,1147.905C484.17377,1142.5413,481.93823,1137.475,478.39703,1133.3632C476.2484,1130.8677,473.66202,1128.767,470.81418,1127.1991C468.47202,1125.9097,466.15878,1125.0372,463.48526,1124.4312C462.89346,1124.2975,461.90756,1124.1279,461.1893,1124.0352C460.71432,1123.9725,460.48514,1123.949,459.74496,1123.8801C458.75726,1123.7882,456.7588,1123.7832,455.62238,1123.8704 Z M458.45938,1130.9016C460.6301,1130.9961,462.58286,1131.377,464.5845,1132.0986C466.952,1132.9534,469.1202,1134.2332,471.02853,1135.9016C471.38712,1136.2172,471.40836,1136.2346,471.7825,1136.6003C472.6894,1137.4852,473.38812,1138.2957,474.12653,1139.3193C476.08722,1142.0455,477.32812,1145.202,477.75928,1148.5732C477.88306,1149.5232,477.9535,1151.0167,477.9182,1151.8676C477.81207,1154.3446,477.3672,1156.487,476.50385,1158.679C475.0404,1162.3882,472.42603,1165.6625,469.12592,1167.9158C466.2827,1169.8602,463.02332,1171.0361,459.57993,1171.3627C459.10434,1171.4073,457.65158,1171.4625,457.23093,1171.4504C456.5587,1171.4314,455.89273,1171.3918,455.46848,1171.3433C455.3492,1171.3296,455.14737,1171.3049,455.0212,1171.2913C453.39523,1171.1014,451.41183,1170.5708,449.79764,1169.8943C448.85153,1169.4995,448.03482,1169.0837,447.12415,1168.5347C442.20917,1165.5782,438.76453,1160.6064,437.70853,1154.9423C437.50406,1153.8445,437.44064,1153.2302,437.39188,1151.8938C437.3441,1150.5822,437.35928,1150.0609,437.47842,1148.9423C438.01938,1143.8552,440.49448,1139.1447,444.38696,1135.7897C445.98798,1134.4115,447.7992,1133.2904,449.75824,1132.4655C451.58917,1131.6954,453.62128,1131.1827,455.5625,1130.9979C455.8015,1130.9755,456.05188,1130.9526,456.12018,1130.9454C456.44556,1130.9133,458.04086,1130.8848,458.45938,1130.9016 Z"/>
</g>
<g style="fill:rgb(255,177,147); fill-opacity:1.0; stroke-linejoin: miter">
<path d="M463.23282,1228.0837L459.89954,1218.7634Q459.9923,1214.3661,459.78864,1210.5139Q459.51782,1207.4899,459.3626,1207.0707Q459.1565,1206.0406,458.84058,1205.2125Q457.33215,1201.613,454.38635,1202.7614Q452.0118,1204.0226,451.0569,1208.7339Q450.0656,1213.3441,449.6474,1223.5916L463.23282,1228.0837"/>
</g>
</g>
</svg>